<?xml version="1.0" ?><svg viewBox="0 0 64 64" xmlns="http://www.w3.org/2000/svg"><path d="M7.62 54c-3.304 0-3.847-.086-4.373-.298-1.46-.585-3.184-2.62-3.243-6.43-.03-1.902.11-10.958.212-17.57.046-3.06.083-5.406.083-5.83 0-2.728 2.777-5.687 6.913-5.745l.666-.004c1.727 0 3.96.076 5.65.146-.028-5.13.96-5.838 1.58-6.283C16.147 11.244 18.435 10 22.123 10h.225c2.46.034 14.734.57 21.328.86 1.785.078 3.088.135 3.548.153 1.997.08 4.45 1.036 4.79 5.13.066.794.01 1.905-.042 2.98.5-.006 1.087-.01 1.784-.01 6.268 0 6.935.414 7.47.747 1.67 1.038 1.935 3.18 2.537 13.657l.097 1.672c.394 6.71-.13 13.208-.315 14.45-.29 1.967-2.166 3.986-5.698 4.06-.962.02-6.3.037-13.058.06-7.83.027-17.28.06-22.786.106-2.576.02-4.956.048-7.082.072-2.976.034-5.46.062-7.3.062z" fill="#FFF"/><path d="M61.576 35.323c-.378-6.442-.672-12.968-1.554-13.515-.882-.547-9.867-.42-10.245-.295-.378.126.084-3.663-.042-5.18-.126-1.515-.504-2.946-2.603-3.03-2.1-.084-21.708-.968-24.815-1.01s-4.997.926-5.878 1.558c-.883.633-.547 6.822-.547 6.822s-5.626-.295-8.65-.253c-3.022.04-4.66 2.146-4.66 3.45 0 1.306-.336 20.59-.294 23.368.04 2.78 1.175 4.084 1.805 4.337.63.253 7.726.084 17.887 0 10.16-.084 33.758-.126 35.815-.168 2.057-.042 3.317-.968 3.485-2.105.168-1.137.672-7.537.294-13.98zM18.454 14.777c.63-.505 9.573-.295 15.325-.126 5.75.17 13.14.464 13.645.97.504.504.63 5.683.336 5.725-.293.042-3.274.168-3.4-.126-.126-.296.252-3.453-.336-3.917-.588-.463-18.18-.632-19.692-.59-1.512.043-3.107.254-3.4 1.727-.295 1.474-.043 2.147-.253 2.23-.21.085-2.436.338-2.646-.125-.062-.138-.21-5.263.42-5.768zm23.513 6.063s-18.35-.042-19.146-.253c0 0-.083-1.6.295-1.81.378-.21 18.223-.168 18.726.168.505.337.127 1.895.127 1.895zm17.215 28.504c-.168-.042-2.35-3.537-2.52-3.537s-.797.168-.713.674 1.93 2.906 1.762 2.906c-.168 0-1.68-.084-1.68-.084s-.924-2.358-1.176-2.484c-.252-.126-.882.084-.882.42 0 .338 1.176 2.232 1.008 2.275-.168.042-1.302-.126-1.302-.126s-.798-1.642-1.008-1.642c-.21 0-.966.463-.882.632.084.168.546 1.01.546 1.01s-1.218.126-1.302 0c-.084-.126-.84-1.684-1.05-1.768-.21-.085-.798.04-.798.04s.966 1.475.63 1.727c-.336.253-22.21.168-28.97.21-6.76.043-15.326.296-15.83-.336-.504-.63-.042-24.798.168-25.766.102-.47 2.687-.926 6.634-1.01 3.947-.085 31.323.84 36.99.84 5.67 0 9.07.127 9.658.422.588.295 1.008 12.84 1.05 16.504.042 3.663-.084 5.094-.084 5.094l-.84-.968s-.756.463-.588.674c.168.21 1.512 2.23 1.596 2.695.086.462-.25 1.64-.418 1.6zM20.092 19.62c.22 0 .126-2.56.126-2.843 0-.284 1.89-.158 2.173-.284.284-.126.127-.726-.03-.947-.158-.22-2.92-.245-3.15.063-.19.252-.315 3.504-.252 3.82.063.315.913.19 1.134.19zm17.572 20.808c.63-.284 0-1.168-.063-1.358s-8.552-.692-8.627-.316c-.063.316-.252 1.358-.126 1.547.125.19 8.187.412 8.817.128zm-6.456 2.084c-.126.22-.157 3.98-.032 4.168.126.19 3.684.253 4.125 0 .442-.253.127-3.884-.03-4.105-.157-.22-3.978-.21-4.062-.063zm3.086 2.97c-.41.22-2.047.378-2.047.157s-.032-1.61.063-1.77c.205-.34 1.795-.125 1.858-.03.063.093.536 1.42.126 1.64zm5.354-13.832c.19-.158.472-3.38.03-3.916-.44-.537-13.288-.98-13.634-.284-.157.316-.252 3.347-.063 4.01.19.663 13.48.348 13.668.19zm-2.33 4.2c.25-.096.093-1.17 0-1.454-.095-.284-8.926-.646-9.196-.284-.095.126-.126 1.42-.032 1.61.095.19 8.975.222 9.227.127zM14.38 28.123c-2.94.463-6.382 2.4-7.348 8.252-.966 5.852 2.56 9.684 8.355 10.147s10.37-3.326 9.614-9.852c-.755-6.526-4.976-9.436-10.622-8.546zm7.473 3.84c.19.064.882.948.724 1.17-.158.22-.568.883-.757.725-.19-.16-.82-1.17-.756-1.296.052-.1.6-.662.788-.6zm-10.58 5.685c-.095.22-1.354 1.64-1.543 1.483-.19-.158-.976-1.358-.976-1.484 0-.135 1.228-1.61 1.512-1.422.282.19 1.1 1.2 1.007 1.42zm-.252-2.337c-.055-.083 1.04-1.263 1.26-1.2.22.063.976 1.168.945 1.263-.03.095-.976 1.326-1.165 1.295-.19-.03-.977-1.263-1.04-1.357zM12 38.66c.156.063 1.133 1.168 1.007 1.42-.126.254-1.04 1.39-1.228 1.296-.19-.095-1.166-1.295-1.198-1.42-.04-.158 1.26-1.36 1.417-1.296zm.755-1.074c.023-.092 1.07-1.168 1.197-1.168.126 0 1.165 1.295 1.165 1.295s-1.228 1.484-1.386 1.42c-.157-.063-1.007-1.42-.975-1.547zm3.212 1.137c.252.19.598.79.598.79s-1.07 1.64-1.197 1.64-.787-1.01-.882-1.104c0 0 1.23-1.516 1.48-1.327zm.157-1.99c-.22-.094-1.354-1.452-1.386-1.546 0 0 1.826-2.116 2.015-2.02.19.094 1.07 1.42 1.04 1.546-.03.126-1.448 2.115-1.67 2.02zm2.488-.726c.126 0 .756.568.693.884s-1.543 1.864-1.67 1.864c-.125 0-.85-1.137-.85-1.137.19-.283 1.7-1.61 1.827-1.61zm1.606 1.863c.094.032.945.632.756 1.01-.19.38-1.858 1.864-1.952 1.8-.094-.062-.756-1.167-.756-1.167.062-.19 1.857-1.674 1.952-1.643zm-.882-3.157c-.058-.116.945-.98 1.134-.916.19.063.567.98.535 1.105-.032.126-.693.947-.85.884-.158-.063-.756-.947-.82-1.073zm1.543 1.926l.786-.664.756.947s-.472.853-.63.853c-.157 0-.913-1.137-.913-1.137zm-1.48-6.632c.202-.153 1.825.853 1.605 1.105-.22.253-.63.79-.82.6-.188-.19-.912-1.61-.786-1.705zm-.946 1.263c.378.19 1.26 1.106 1.165 1.264-.096.158-.788 1.2-.946 1.168-.158-.032-1.228-1.484-1.228-1.484s.63-1.137 1.008-.947zM17.1 29.25c.094 0 .66.79.66.916s-.975 1.01-1.1.853c-.127-.16-.662-.822-.662-.948 0-.142 1.008-.822 1.102-.822zm-1.92 1.83c.314.16.975.76.786 1.075-.19.316-1.795 2.305-1.952 2.116-.157-.188-1.04-1.04-.976-1.167 0 0 1.826-2.18 2.14-2.022zm-1.344-1.567c.462 0 .504.463.462.59-.042.125-1.722 1.978-1.93 1.85-.21-.125-1.01-1.052-1.05-1.178-.087-.255 2.056-1.262 2.518-1.262zm-3.254 2.295c.373-.172 1.134 1.2 1.008 1.295-.126.095-1.386 1.42-1.48 1.39-.094-.033-.913-.57-.913-.854 0-.285.63-1.485 1.385-1.832zm-1.827 2.905c.13-.13.535.632.41.82s-.473.885-.568.79c-.094-.095-.094-1.358.158-1.61zm-.126 6c-.127-.127-.284-.443-.38-.633 0 0 .033-.79.158-.79s.693.57.63.917c-.062.347-.283.632-.41.505zm1.668 2.462c-.19-.095-1.04-1.074-1.134-1.2-.08-.107.63-1.01.85-.82.22.188 1.04 1.01.945 1.262-.095.253-.473.853-.662.758zm2.205 1.61c-.095-.03-.945-.44-1.04-.6-.093-.157.316-.788.347-.883.072-.216 1.102 1.168 1.008 1.295-.095.126-.22.22-.315.19zm.88-1.294c-.094-.094-.755-.946-.818-1.23-.035-.158.882-1.264 1.134-1.17s.85.854.818 1.043c-.03.19-1.04 1.453-1.134 1.358zm1.67 1.643c-.094 0-.598-.758-.66-.947-.068-.2.786-1.2 1.007-1.074.22.126.724.947.693 1.074-.032.126-.945.947-1.04.947zm1.89-2.18c-.094-.03-.787-.883-.787-1.104 0-.273 1.134-1.233 1.29-1.138.158.095.63.632.536.947-.094.315-.945 1.326-1.04 1.294zm1.51 2.212c-.062-.158-1.07-1.168-1.007-1.263.136-.205 1.197-1.358 1.354-1.326.157.032 1.04.947.945 1.168-.094.22-1.228 1.58-1.29 1.42zm2.143-2.495c-.158-.032-1.008-1.2-1.008-1.2.157-.253 1.92-1.737 2.078-1.705.158.032.85.758.693 1.042-.158.284-1.607 1.895-1.764 1.863zm.882 1.295l-.19-.316c.22-.222 1.607-1.706 1.607-1.706s.315.095.283.22c-.032.127-1.7 1.8-1.7 1.8zm1.857-4.137c-.126 0-.693-.98-.693-1.105 0-.16.41-.6.598-.505.19.095.567.98.567 1.074 0 .094-.346.536-.472.536zm.126-3.568c-.156-.032-1.007-1.42-.975-1.516 0 0 .693-.695.82-.6.125.095.66 1.42.63 1.642-.033.22-.316.506-.474.474zm2.11 6.536c-.125.22-.156 4.2-.093 4.452.063.253 3.4.095 3.62 0 .22-.095.19-4.168.033-4.39-.158-.22-3.36-.413-3.56-.062zm2.206 3.22c-.126.096-.976.254-1.07-.03-.095-.285-.22-1.675-.064-1.832.12-.12 1.26.063 1.26.063s0 1.706-.126 1.8zm9.29-3.25c-.127.22-.127 3.662-.064 3.883.063.22 3.936.03 3.936.03s.063-3.662-.094-3.85c-.157-.19-3.57-.433-3.78-.065zm1.07 2.81c-.095-.16 0-1.61.063-1.738.125-.253 1.416.095 1.416.095l.032 1.737s-1.417.063-1.512-.095zM58.51 36.67c-.755-6.526-4.975-9.437-10.622-8.547-2.94.463-6.382 2.4-7.348 8.252-.966 5.852 2.56 9.684 8.355 10.147s10.37-3.326 9.616-9.852zm-3.15-4.705c.19.063.883.947.725 1.168-.158.22-.567.884-.756.726-.19-.16-.82-1.17-.757-1.296.052-.1.6-.662.788-.6zM44.78 37.65c-.093.22-1.353 1.64-1.542 1.483-.19-.158-.976-1.358-.976-1.484 0-.135 1.228-1.61 1.512-1.422.282.19 1.1 1.2 1.007 1.42zm-.25-2.337c-.056-.083 1.038-1.263 1.26-1.2.22.063.975 1.168.944 1.263-.032.095-.976 1.326-1.165 1.295-.19-.03-.978-1.263-1.04-1.357zm.975 3.347c.157.063 1.134 1.168 1.008 1.42-.126.254-1.04 1.39-1.228 1.296-.19-.095-1.165-1.295-1.197-1.42-.04-.158 1.26-1.36 1.417-1.296zm.756-1.074c.024-.092 1.072-1.168 1.198-1.168.126 0 1.165 1.295 1.165 1.295s-1.228 1.484-1.386 1.42c-.158-.063-1.008-1.42-.976-1.547zm3.213 1.137c.252.19.598.79.598.79s-1.07 1.64-1.196 1.64c-.126 0-.787-1.01-.882-1.104 0 0 1.23-1.516 1.48-1.327zm.157-1.99c-.22-.094-1.354-1.452-1.386-1.546 0 0 1.826-2.116 2.015-2.02.188.094 1.07 1.42 1.038 1.546-.03.126-1.447 2.115-1.668 2.02zm2.488-.726c.126 0 .756.568.693.884-.062.317-1.542 1.864-1.668 1.864-.126 0-.85-1.137-.85-1.137.188-.283 1.7-1.61 1.826-1.61zm1.606 1.863c.095.032.945.632.756 1.01-.19.38-1.858 1.864-1.952 1.8-.094-.062-.756-1.167-.756-1.167.062-.19 1.857-1.674 1.952-1.643zm-.882-3.157c-.058-.116.945-.98 1.134-.916.19.063.567.98.535 1.105-.03.126-.692.947-.85.884-.157-.063-.755-.947-.818-1.073zm1.543 1.926l.787-.664.756.947s-.472.853-.63.853c-.157 0-.913-1.137-.913-1.137zm-1.48-6.632c.203-.153 1.826.853 1.606 1.105-.22.253-.63.79-.818.6-.19-.19-.913-1.61-.787-1.705zm-.945 1.263c.378.19 1.26 1.106 1.165 1.264-.095.158-.787 1.2-.945 1.168-.157-.032-1.228-1.484-1.228-1.484s.63-1.137 1.008-.947zm-1.354-2.02c.095 0 .66.79.66.916s-.975 1.01-1.1.853c-.127-.16-.662-.822-.662-.948 0-.142 1.008-.822 1.102-.822zm-1.92 1.83c.314.16.975.76.786 1.075-.19.316-1.795 2.305-1.952 2.116-.158-.188-1.04-1.04-.976-1.167 0 0 1.826-2.18 2.14-2.022zm-1.344-1.567c.462 0 .504.463.462.59-.042.125-1.72 1.978-1.93 1.85-.21-.125-1.01-1.052-1.05-1.178-.086-.255 2.056-1.262 2.518-1.262zm-3.254 2.295c.373-.172 1.134 1.2 1.008 1.295-.126.095-1.386 1.42-1.48 1.39-.094-.033-.913-.57-.913-.854 0-.285.63-1.485 1.385-1.832zm-1.827 2.905c.13-.13.536.632.41.82-.126.19-.472.885-.567.79-.094-.095-.094-1.358.158-1.61zm-.125 6c-.126-.127-.283-.443-.378-.633 0 0 .03-.79.157-.79.126 0 .693.57.63.917-.062.347-.283.632-.41.505zm1.67 2.462c-.19-.095-1.04-1.074-1.135-1.2-.08-.107.63-1.01.85-.82.22.188 1.04 1.01.945 1.262-.094.253-.472.853-.66.758zm2.204 1.61c-.095-.03-.946-.44-1.04-.6-.094-.157.315-.788.346-.883.072-.216 1.102 1.168 1.008 1.295-.095.126-.22.22-.315.19zm.88-1.294c-.094-.094-.756-.946-.82-1.23-.034-.158.883-1.264 1.135-1.17.252.096.85.854.82 1.043-.032.19-1.04 1.453-1.135 1.358zm1.67 1.643c-.096 0-.6-.758-.662-.947-.067-.2.787-1.2 1.008-1.074.22.126.724.947.693 1.074-.033.126-.946.947-1.04.947zm1.89-2.18c-.096-.03-.788-.883-.788-1.104 0-.273 1.134-1.233 1.29-1.138.158.095.63.632.536.947-.094.315-.945 1.326-1.04 1.294zm1.51 2.212c-.063-.158-1.07-1.168-1.008-1.263.136-.205 1.197-1.358 1.354-1.326.157.032 1.04.947.945 1.168-.093.22-1.227 1.58-1.29 1.42zm2.142-2.495c-.157-.032-1.008-1.2-1.008-1.2.157-.253 1.92-1.737 2.078-1.705.157.032.85.758.693 1.042-.157.284-1.606 1.895-1.763 1.863zm.882 1.295l-.19-.316c.22-.222 1.607-1.706 1.607-1.706s.316.095.284.22c-.03.127-1.7 1.8-1.7 1.8zm1.857-4.137c-.125 0-.692-.98-.692-1.105 0-.16.41-.6.598-.505.19.095.567.98.567 1.074 0 .094-.346.536-.472.536zm.127-3.568c-.158-.032-1.008-1.42-.976-1.516 0 0 .694-.695.82-.6.126.095.66 1.42.63 1.642-.032.22-.315.506-.473.474zM8.503 28.808c.252-.095 0-2.716-.032-2.874-.03-.158 1.576-.347 1.86-.316.282.032.188-.916.188-1.01 0-.095-2.897-.095-3.15-.063-.25.032-.125 4.295-.125 4.295.22.315 1.008.062 1.26-.032z"/></svg>