<?xml version="1.0" encoding="UTF-8" standalone="no"?>
<svg width="24px" height="24px" viewBox="0 0 24 24" version="1.1" xmlns="http://www.w3.org/2000/svg" xmlns:xlink="http://www.w3.org/1999/xlink">
    <!-- Generator: sketchtool 39 (31562) - http://www.bohemiancoding.com/sketch -->
    <title>F28F11D6-C382-4279-85E4-473DDD646B0E</title>
    <desc>Created with sketchtool.</desc>
    <defs>
        <linearGradient x1="50%" y1="0%" x2="50%" y2="100%" id="linearGradient-1">
            <stop stop-color="#DADCE2" offset="0%"></stop>
            <stop stop-color="#000000" offset="100%"></stop>
        </linearGradient>
    </defs>
    <g id="Y-Icons/Descriptive" stroke="none" stroke-width="1" fill="none" fill-rule="evenodd">
        <g id="Icons/Descriptive/ic-descriptive-rss">
            <polygon id="Bounds" fill="url(#linearGradient-1)" opacity="0" points="0 0 24 0 24 24 0 24"></polygon>
            <path d="M5,17 C6.66,17 8,18.34 8,20 C8,21.66 6.66,23 5,23 C3.34,23 2,21.66 2,20 C2,18.34 3.34,17 5,17 L5,17 Z M5,18 C3.9,18 3,18.9 3,20 C3,21.1 3.9,22 5,22 C6.1,22 7,21.1 7,20 C7,18.9 6.1,18 5,18 L5,18 Z M2,12 C8.08,12 13,16.92 13,23 L12,23 C12,17.48 7.52,13 2,13 L2,12 L2,12 Z M2,8 C10.28,8 17,14.72 17,23 L16,23 C16,15.27 9.73,9 2,9 L2,8 L2,8 Z M2,4 C12.5,4 21,12.5 21,23 L20,23 C20,13.06 11.94,5 2,5 L2,4 L2,4 Z" id="Icon-Shape" fill="#BDC0CB"></path>
        </g>
    </g>
</svg>