<svg xmlns="http://www.w3.org/2000/svg" width="55" height="105" viewBox="0 0 55 105">
    <g fill="none" fill-rule="evenodd">
        <rect width="53" height="103" x="1" y="1" stroke="#7B8397" stroke-width="2" rx="6"/>
        <rect width="47" height="81" x="4" y="12" fill="#888FA1" opacity=".1" rx="1"/>
        <path fill="#7B8397" d="M32.447 48.368a2.51 2.51 0 0 0 .153-.842A2.535 2.535 0 0 0 30.05 45c-.893 0-1.666.455-2.125 1.137l-.425.564-.425-.573A2.566 2.566 0 0 0 24.95 45a2.535 2.535 0 0 0-2.55 2.526c0 .295.06.581.153.842H20.7a1.68 1.68 0 0 0-1.691 1.685L19 59.316c0 .935.756 1.684 1.7 1.684h13.6c.944 0 1.7-.75 1.7-1.684v-9.263c0-.935-.757-1.685-1.7-1.685h-1.853zm-1.547-.842a.849.849 0 0 1-.85.842.849.849 0 0 1-.85-.842c0-.463.383-.842.85-.842.467 0 .85.38.85.842zm-5.1 0a.849.849 0 0 1-.85.842.849.849 0 0 1-.85-.842c0-.463.383-.842.85-.842.468 0 .85.38.85.842zm-5.1 11.79v-1.684h13.6v1.684H20.7zm0-4.21v-5.053h4.318l-1.264 1.703a.832.832 0 0 0 .184 1.172.861.861 0 0 0 1.193-.187l1.519-2.048.85-1.146.85 1.146 1.519 2.048c.28.377.81.46 1.192.187a.832.832 0 0 0 .185-1.172l-1.264-1.703H34.3v5.052H20.7z"/>
        <path stroke="#F4F4F6" stroke-linecap="round" stroke-width="2" d="M18.5 42l23.946 21.59"/>
        <path stroke="#7B8397" stroke-linecap="round" stroke-width="2" d="M16 42l23.446 21.59"/>
        <path fill="#7B8397" d="M19 75.493c0 .435-.141.794-.424 1.08-.283.284-.642.427-1.076.427-.434 0-.793-.143-1.076-.428-.283-.285-.424-.644-.424-1.079 0-.434.141-.792.424-1.072.283-.28.642-.421 1.076-.421.434 0 .793.14 1.076.42.283.281.424.639.424 1.073zM24 75.493c0 .435-.141.794-.424 1.08-.283.284-.642.427-1.076.427-.434 0-.793-.143-1.076-.428-.283-.285-.424-.644-.424-1.079 0-.434.141-.792.424-1.072.283-.28.642-.421 1.076-.421.434 0 .793.14 1.076.42.283.281.424.639.424 1.073z"/>
        <path fill="#C4C7CF" d="M29 75.493c0 .435-.141.794-.424 1.08-.283.284-.642.427-1.076.427-.434 0-.793-.143-1.076-.428-.283-.285-.424-.644-.424-1.079 0-.434.141-.792.424-1.072.283-.28.642-.421 1.076-.421.434 0 .793.14 1.076.42.283.281.424.639.424 1.073zM34 75.493c0 .435-.141.794-.424 1.08-.283.284-.642.427-1.076.427-.434 0-.793-.143-1.076-.428-.283-.285-.424-.644-.424-1.079 0-.434.141-.792.424-1.072.283-.28.642-.421 1.076-.421.434 0 .793.14 1.076.42.283.281.424.639.424 1.073zM39 75.493c0 .435-.141.794-.424 1.08-.283.284-.642.427-1.076.427-.434 0-.793-.143-1.076-.428-.283-.285-.424-.644-.424-1.079 0-.434.141-.792.424-1.072.283-.28.642-.421 1.076-.421.434 0 .793.14 1.076.42.283.281.424.639.424 1.073z"/>
    </g>
</svg>
