<svg width="24" height="24" viewBox="0 0 24 24" xmlns="http://www.w3.org/2000/svg" xmlns:xlink="http://www.w3.org/1999/xlink"><title>1186D5E4-4B56-4AAB-B14A-A263B0C7B903</title><defs><linearGradient x1="50%" y1="0%" x2="50%" y2="100%" id="c"><stop stop-color="#DADCE2" offset="0%"/><stop offset="100%"/></linearGradient><path d="M15.693 3.872a.19.19 0 0 0-.18-.16c-.082 0-1.637-.112-1.637-.112s-1.08-1.056-1.21-1.168c-.115-.112-.36-.08-.442-.048-.017 0-.246.064-.606.176-.36-1.024-.998-1.968-2.127-1.968h-.098C9.065.176 8.673 0 8.329 0 5.695 0 4.435 3.216 4.042 4.848c-1.015.304-1.751.528-1.833.56-.573.176-.589.192-.654.72C1.489 6.512 0 17.792 0 17.792l11.618 2.128 6.3-1.328-2.225-14.72zm-4.73-1.12c-.294.096-.621.192-.981.304v-.208c0-.64-.098-1.152-.23-1.552.59.064.966.704 1.212 1.456zm-1.93-1.344c.163.4.262.96.262 1.728v.112c-.639.192-1.342.4-2.03.608.393-1.456 1.13-2.176 1.768-2.448zm-.786-.72c.115 0 .23.032.344.112-.835.384-1.751 1.36-2.127 3.312-.557.176-1.097.336-1.604.48C5.302 3.104 6.365.688 8.247.688z" id="a"/><mask id="d" x="0" y="0" width="17.918" height="19.92" fill="#fff"><use xlink:href="#a"/></mask><path d="M15.513 3.712c-.082 0-1.637-.112-1.637-.112s-1.08-1.056-1.21-1.168a.314.314 0 0 0-.164-.08l-.884 17.568 6.3-1.328S15.71 3.984 15.693 3.888c-.017-.112-.115-.16-.18-.176z" id="b"/><mask id="e" x="0" y="0" width="6.3" height="17.568" fill="#fff"><use xlink:href="#b"/></mask></defs><g transform="translate(3 2)" fill="none" fill-rule="evenodd"><use stroke="#BDC0CB" mask="url(#d)" stroke-width="2" xlink:href="#a"/><use stroke="#BDC0CB" mask="url(#e)" stroke-width="2" xlink:href="#b"/><path d="M9.71 6.624L8.94 8.88s-.687-.352-1.505-.352c-1.228 0-1.277.752-1.277.944 0 1.024 2.75 1.424 2.75 3.84 0 1.904-1.228 3.12-2.897 3.12C4.015 16.432 3 15.216 3 15.216l.54-1.728s1.047.88 1.93.88a.78.78 0 0 0 .82-.768c0-1.344-2.26-1.408-2.26-3.616 0-1.856 1.36-3.664 4.125-3.664 1.03 0 1.554.304 1.554.304z" fill="#BDC0CB"/></g></svg>