<?xml version="1.0" encoding="UTF-8" standalone="no"?>
<svg width="24px" height="24px" viewBox="0 0 24 24" version="1.1" xmlns="http://www.w3.org/2000/svg" xmlns:xlink="http://www.w3.org/1999/xlink">
    <!-- Generator: sketchtool 39 (31652) - http://www.bohemiancoding.com/sketch -->
    <title>A6E7F645-4FC8-46B3-B4EB-071D6828FA70</title>
    <desc>Created with sketchtool.</desc>
    <defs>
        <linearGradient x1="50%" y1="0%" x2="50%" y2="100%" id="linearGradient-1">
            <stop stop-color="#DADCE2" offset="0%"></stop>
            <stop stop-color="#000000" offset="100%"></stop>
        </linearGradient>
    </defs>
    <g id="Y-Icons/Descriptive" stroke="none" stroke-width="1" fill="none" fill-rule="evenodd">
        <g id="Icons/Descriptive/ic-descriptive-web">
            <polygon id="Bounds" fill="url(#linearGradient-1)" opacity="0" points="0 0 24 0 24 24 0 24"></polygon>
            <g id="Icon-shape" transform="translate(2.000000, 2.000000)" fill="#BDC0CB">
                <path d="M19.5,10 C19.5,4.75329488 15.2467051,0.5 10,0.5 C4.75329488,0.5 0.5,4.75329488 0.5,10 C0.5,15.2467051 4.75329488,19.5 10,19.5 C15.2467051,19.5 19.5,15.2467051 19.5,10 Z M1.5,10 C1.5,5.30557963 5.30557963,1.5 10,1.5 C14.6944204,1.5 18.5,5.30557963 18.5,10 C18.5,14.6944204 14.6944204,18.5 10,18.5 C5.30557963,18.5 1.5,14.6944204 1.5,10 Z" id="Oval"></path>
                <rect id="Rectangle" x="2" y="6" width="16" height="1"></rect>
                <rect id="Rectangle" x="2" y="13" width="16" height="1"></rect>
                <path d="M10.9249286,2.37239498 C11.1941409,2.89881532 11.4640025,3.5032601 11.7161388,4.1755732 C13.4427727,8.77958617 13.4427727,13.6748241 10.5760097,18.2613021 L10.310996,18.6852923 L11.1589765,19.2153198 L11.4239903,18.7913295 C14.4787225,13.9041231 14.4787225,8.69409793 12.6524593,3.82442675 C12.3864647,3.11516091 12.1011862,2.47618465 11.8152583,1.91707869 C11.641961,1.57821141 11.50536,1.33885237 11.4239902,1.20867049 L11.1589765,0.784680247 L10.310996,1.31470768 L10.5760098,1.73869793 C10.6426774,1.84535816 10.7651418,2.05994648 10.9249286,2.37239498 Z" id="Line"></path>
                <path d="M8.05333976,1.91707869 C7.76741193,2.47618465 7.48213334,3.11516091 7.21613877,3.82442675 C5.38987556,8.69409793 5.38987556,13.9041231 8.44460784,18.7913295 L8.70962155,19.2153198 L9.55760205,18.6852923 L9.29258834,18.2613021 C6.42582539,13.6748241 6.42582539,8.77958617 8.15245932,4.1755732 C8.40459558,3.5032601 8.67445717,2.89881532 8.94366952,2.37239498 C9.10345626,2.05994648 9.22592071,1.84535816 9.29258834,1.73869793 L9.55760205,1.31470768 L8.70962156,0.784680247 L8.44460784,1.20867049 C8.36323809,1.33885237 8.22663712,1.57821141 8.05333976,1.91707869 Z" id="Line"></path>
            </g>
        </g>
    </g>
</svg>